<svg width="40" height="42" viewBox="0 0 40 42" fill="none" xmlns="http://www.w3.org/2000/svg">
<g clip-path="url(#clip0_874_57734)">
<path fill-rule="evenodd" clip-rule="evenodd" d="M19.9203 16.612V41.4726C19.9203 41.4726 6.30288 35.6451 0.596122 33.2097L0.580078 33.1823V8.33789L0.596122 8.36849L19.9031 16.6314L19.9203 16.612Z" fill="#FCD062"/>
<path fill-rule="evenodd" clip-rule="evenodd" d="M39.2463 8.33594L39.2303 8.36635L19.9219 16.6305V41.474L39.2303 33.2098L39.2463 33.1794V8.33594Z" fill="#F8AA3A"/>
<path fill-rule="evenodd" clip-rule="evenodd" d="M19.5988 0.0771484L0.576172 8.33928V8.36022L19.9211 16.6611L39.278 8.33932L20.1211 0.0771951H19.9211H19.5988V0.0771484Z" fill="#F8B84E"/>
<path d="M28.0474 29.4785L23.2207 31.5439M32.8742 30.7167L28.0474 32.7822L23.2207 34.8477L32.8742 30.7167Z" stroke="#1C4D7E" stroke-width="0.90822" stroke-linecap="round" stroke-linejoin="round"/>
<path fill-rule="evenodd" clip-rule="evenodd" d="M25.8891 2.57324L25.77 2.61699L6.55469 10.9255V22.5944L9.96608 20.9118L13.3315 25.9598L13.3281 13.8345L32.5475 5.43908L25.8891 2.57324Z" fill="#E9EDED"/>
</g>
<defs>
<clipPath id="clip0_874_57734">
<rect width="40" height="42" fill="white"/>
</clipPath>
</defs>
</svg>
