<svg width="64" height="40" viewBox="0 0 64 40" fill="none" xmlns="http://www.w3.org/2000/svg">
<path d="M28.1953 28.6112H7.72534C7.72534 28.6112 9.96156 19.0488 17.9586 19.0488C25.9557 19.0488 27.8427 26.4765 28.1953 28.6112Z" fill="#4285F4"/>
<path opacity="0.2" d="M28.1953 28.6112H7.72534C7.72534 28.6112 9.96156 19.0488 17.9586 19.0488C25.9557 19.0488 27.8427 26.4765 28.1953 28.6112Z" fill="black"/>
<path d="M92.2763 10.1386C92.715 10.8267 93.4805 18.5141 93.5303 18.7824C93.5802 19.0508 94.2184 20.2274 94.2184 20.451C94.2184 20.6746 94.3904 24.1356 94.2958 24.3592C94.0886 24.7675 93.8529 25.1607 93.5905 25.5358C93.4787 25.67 90.5785 28.166 90.2534 28.2004C89.9283 28.2348 86.9283 28.2554 86.8716 28.2004C86.8148 28.1453 86.4691 18.9115 77.3659 18.9115C68.2628 18.9115 68.3626 28.7164 68.194 28.7542C68.0254 28.7921 27.2765 29.7175 27.2765 29.7175C27.2765 28.2158 27.1595 19.2813 18.2301 19.2813C12.4125 19.2813 9.47276 24.0754 9.37126 27.6121C9.32998 29.0845 9.57596 30.7084 9.49511 30.7084C9.22677 30.7084 8.3082 30.7754 8.15166 30.7084C7.99512 30.6413 6.08747 29.3855 5.93437 29.3408C5.78128 29.2961 4.68037 29.2737 4.41203 29.2067C4.14368 29.1396 2.26183 27.4865 2.22742 27.4263C2.19302 27.3661 2.13797 26.7107 2.12765 26.6539C2.11732 26.5972 0.211388 24.2681 0.121941 24.0118C0.0324936 23.7554 -0.000198364 21.6259 -0.000198364 21.4126C-0.000198364 21.1993 3.45906 15.5898 4.26582 14.986C5.07258 14.3823 10.8162 12.3662 12.4968 12.0618C14.1774 11.7573 23.4147 10.3812 23.7501 10.1472C24.0855 9.91328 39.8595 0.866929 42.6031 0.194345C44.8204 -0.342347 70.4853 0.395604 71.8287 0.46269C73.1722 0.529776 76.8912 1.20236 77.249 1.20236C77.6068 1.20236 81.7214 1.18 81.9743 1.29181C82.2271 1.40362 81.9743 2.38928 81.6612 2.56817C81.3481 2.74707 91.5143 8.92934 92.2763 10.1386Z" fill="#4285F4"/>
<path d="M80.4303 9.44854C79.9917 10.7421 26.9022 13.1607 26.6115 12.5345C26.3965 12.0701 31.1458 8.25647 33.3631 7.01279C35.5804 5.76911 41.9296 2.17569 45.0603 1.80585C48.191 1.43602 54.5212 1.46182 60.0429 1.57191C65.5199 1.67168 71.9688 1.80585 74.2532 2.77602C76.2503 3.63611 80.7778 8.41988 80.4303 9.44854Z" fill="#263238"/>
<path d="M78.9499 8.69367C78.8174 9.18048 67.0928 10.4414 53.3521 11.0795C39.6114 11.7177 32.8271 11.8175 32.6585 11.7504C32.4899 11.6833 33.1298 8.0228 33.3638 7.72005C33.5977 7.41731 43.4422 2.37894 44.9869 2.24305C46.5317 2.10716 54.8813 2.09167 59.0923 2.15876C63.3033 2.22585 72.0916 2.72986 73.5881 3.33363C74.9075 3.86688 79.0858 8.20686 78.9499 8.69367Z" fill="#455A64"/>
<g opacity="0.1">
<path opacity="0.1" d="M60.7577 2.20117L68.6274 10.0709C70.0311 9.94708 71.3298 9.82323 72.4961 9.70453L65.2043 2.41447C63.6493 2.3147 62.0994 2.24246 60.7577 2.20117Z" fill="white"/>
<path opacity="0.1" d="M32.6876 10.9741L33.4806 11.7671C34.2833 11.7671 35.668 11.7407 37.6348 11.688L33.5408 7.5957C33.4797 7.6309 33.4221 7.67179 33.3688 7.71784C33.1985 7.93458 32.8235 9.8646 32.6876 10.9741Z" fill="white"/>
<path opacity="0.1" d="M54.8925 2.12598L63.2611 10.4997C63.932 10.4533 64.5908 10.4051 65.2324 10.3552L57.0203 2.14146C56.346 2.13114 55.6287 2.12598 54.8925 2.12598Z" fill="white"/>
<path opacity="0.1" d="M36.928 5.79362L42.663 11.5321L44.7031 11.4564L38.3385 5.0918C37.8552 5.32746 37.3804 5.56312 36.928 5.79362Z" fill="white"/>
<path opacity="0.1" d="M35.7093 6.41759L40.8698 11.5884L41.4512 11.5678L36.098 6.21289L35.7093 6.41759Z" fill="white"/>
<path opacity="0.1" d="M43.1339 2.86514L51.4337 11.1649L52.0117 11.1409L43.5554 2.69141L43.1339 2.86514Z" fill="white"/>
</g>
<path d="M54.8344 2.37247C54.7501 2.63738 54.6108 10.4418 54.6108 10.6929C54.6108 10.944 54.898 11.0043 54.898 11.0043L50.4617 11.2107C50.4617 11.2107 50.749 11.1298 50.8058 10.9957C50.8625 10.8615 52.2507 2.44644 52.2421 2.33635C52.2335 2.22626 52.015 2.12305 52.015 2.12305H55.1113C55.0506 2.14361 54.9948 2.17634 54.9472 2.21922C54.8995 2.26211 54.8612 2.31425 54.8344 2.37247Z" fill="#263238"/>
<path d="M11.9988 15.0753C11.5155 15.858 7.96679 17.2427 6.64054 17.4612C5.80454 17.5988 2.91122 17.7811 2.74264 17.6332C2.57406 17.4852 3.96912 15.5501 4.69159 15.0787C5.41406 14.6074 9.02468 13.3999 10.117 13.4497C11.2093 13.4996 12.4857 14.284 11.9988 15.0753Z" fill="white"/>
<path d="M2.74376 17.6301C2.91578 17.7814 5.80566 17.5991 6.64166 17.4581C7.96791 17.2396 11.5166 15.8549 12 15.0722C12.4833 14.2895 11.2104 13.4948 10.1181 13.4432C10.0333 13.4382 9.94831 13.4382 9.86353 13.4432C10.8801 13.8182 11.0883 14.6129 10.469 15.067C9.84977 15.5211 7.8647 16.5825 7.0717 16.8044C6.30795 17.0194 3.45936 17.4632 3.21166 17.2688C3.16446 17.2128 3.13025 17.1471 3.11152 17.0763C3.09278 17.0055 3.08997 16.9314 3.10328 16.8594C2.84182 17.2602 2.68012 17.5733 2.74376 17.6301Z" fill="#EBEBEB"/>
<g opacity="0.5">
<path opacity="0.5" d="M52.2695 11.7734L51.9668 13.9219L51.8361 14.9987C51.8154 15.1794 51.7965 15.3583 51.7827 15.5406C51.769 15.7229 51.7827 15.9018 51.7827 16.0842L51.812 20.4224L51.8464 22.5933L51.8653 23.677L51.8739 24.2206L51.9152 24.7607L52.0872 26.9247L52.2695 29.0783L52.1594 26.9126L52.0356 24.7486L52.0046 24.2068V23.6649L51.9943 22.5812L51.9719 20.4156L51.898 16.0807C51.898 15.9001 51.8825 15.7178 51.898 15.5406C51.9135 15.3634 51.9238 15.1811 51.941 15.0022L52.0494 13.9236L52.2695 11.7734Z" fill="black"/>
<path opacity="0.5" d="M28.4471 12.759L28.0738 14.9178L27.9018 16.005L27.857 16.275C27.8376 16.365 27.8266 16.4565 27.8244 16.5485C27.8244 16.7309 27.8244 16.9132 27.8244 17.0973C27.8364 18.5577 27.8725 20.0215 27.9172 21.4768C27.9287 21.8415 27.9442 22.2061 27.9637 22.5708C27.9841 22.9388 28.0547 23.3022 28.1735 23.6511C28.3731 24.3546 28.6019 25.0479 28.853 25.7359C29.098 26.426 29.3899 27.0984 29.7269 27.7485L29.8628 27.9893C29.9092 28.0685 29.9625 28.1442 30.0124 28.2216C30.0647 28.2993 30.1221 28.3735 30.1844 28.4435L30.2739 28.5518C30.3224 28.5808 30.3774 28.5973 30.4338 28.6C30.8037 28.6378 31.1666 28.643 31.533 28.655C34.4573 28.7153 37.373 28.6894 40.2938 28.6688C43.2147 28.6482 46.1338 28.6052 49.0546 28.5518C51.9755 28.4985 54.8929 28.4177 57.812 28.311C59.2707 28.2508 60.7363 28.2026 62.1881 28.0719C62.3749 28.0581 62.5601 28.0288 62.742 27.9842C62.8452 27.9446 62.9054 27.8965 62.9931 27.8586C63.0809 27.8208 63.1548 27.7795 63.2374 27.7416C63.5694 27.592 63.91 27.4595 64.2403 27.2944C64.5749 27.1356 64.8849 26.9294 65.1605 26.682C65.4004 26.4016 65.6221 26.1063 65.8245 25.7978C66.6468 24.5937 67.4329 23.3587 68.2173 22.1287C69.0017 20.8988 69.7792 19.6603 70.5515 18.4218C71.3239 17.1833 72.0859 15.9361 72.8394 14.6856L73.118 14.2143L73.1851 14.0904L73.2178 14.0285C73.2232 14.0059 73.2261 13.9829 73.2264 13.9597L73.2539 13.6879C73.2849 13.3232 73.3124 12.9585 73.3262 12.5939C73.3262 12.5027 73.3262 12.4115 73.3262 12.3186C73.3143 12.2277 73.2947 12.1379 73.2677 12.0503C73.2178 11.8783 73.1576 11.7063 73.0957 11.5342C72.9735 11.1902 72.8428 10.8462 72.7069 10.5107C72.8399 10.8548 72.9667 11.1988 73.0871 11.5428C73.1456 11.7149 73.204 11.8869 73.2591 12.0589C73.2854 12.146 73.3044 12.2352 73.3158 12.3255C73.3158 12.4167 73.3158 12.5079 73.3158 12.599C73.3004 12.962 73.2677 13.3267 73.235 13.6896L73.2058 13.9614C73.2041 13.984 73.2007 14.0064 73.1954 14.0285L73.1628 14.087C73.1404 14.1248 73.1215 14.1627 73.0974 14.2022L72.8153 14.6718C72.0532 15.9155 71.2671 17.1523 70.4965 18.3874C68.9483 20.8558 67.3882 23.3311 65.7488 25.7462C65.5502 26.0462 65.333 26.3334 65.0986 26.6063C64.829 26.8457 64.5266 27.0455 64.2007 27.1998C63.8756 27.3598 63.5367 27.4905 63.2013 27.6419C63.117 27.6797 63.0293 27.7176 62.9519 27.7588C62.8744 27.8001 62.7798 27.8552 62.7127 27.8792C62.5395 27.9188 62.3636 27.9452 62.1864 27.9584C60.7363 28.0857 59.2741 28.1304 57.8154 28.1837C54.8912 28.2835 51.9789 28.3471 49.0598 28.4005C46.1407 28.4538 43.2216 28.5106 40.3007 28.5432C37.3799 28.5759 34.4522 28.6069 31.5434 28.5553C31.1804 28.545 30.8123 28.5398 30.4545 28.5037C30.4132 28.5037 30.3599 28.4865 30.353 28.4847L30.267 28.3815C30.2078 28.314 30.1538 28.2421 30.1053 28.1665C30.0571 28.0908 30.0038 28.0169 29.9574 27.9395L29.8232 27.7038C29.4805 27.0567 29.1834 26.3865 28.9339 25.6981C28.6804 25.01 28.4511 24.3179 28.2458 23.6218C28.1288 23.279 28.0582 22.9221 28.0359 22.5605L27.9861 21.4665C27.9276 20.0078 27.8794 18.5422 27.8553 17.0887C27.8553 16.9063 27.8553 16.724 27.8553 16.5434C27.858 16.4521 27.8683 16.3611 27.8863 16.2716L27.9293 16.0015L28.1013 14.9212L28.4471 12.759Z" fill="black"/>
<path opacity="0.5" d="M9.65667 16.4717C10.0359 16.7907 10.4384 17.0811 10.8608 17.3404C11.2788 17.6104 11.7054 17.865 12.1286 18.1248C12.5517 18.3845 12.9886 18.6253 13.4204 18.8662C13.8522 19.107 14.2908 19.3426 14.7363 19.5645C14.3218 19.2893 13.9003 19.0261 13.4789 18.7647L12.206 17.994L10.9227 17.2423L10.2794 16.8673C10.0641 16.7481 9.85611 16.6159 9.65667 16.4717Z" fill="black"/>
<path opacity="0.5" d="M71.123 20.7422L65.4362 20.8918L59.7476 21.0639L48.3721 21.4113L36.9984 21.8087L31.3115 22.0082L25.6264 22.2319L31.315 22.0822L37.0018 21.9102L48.3773 21.5627L59.751 21.1653L65.4379 20.9641L71.123 20.7422Z" fill="black"/>
<path opacity="0.5" d="M49.6888 13.129L49.9107 13.141H49.9658C49.9778 13.141 49.9813 13.1513 49.9881 13.1685C49.9979 13.2034 50.0043 13.2391 50.0071 13.2752C50.0217 13.4209 50.0252 13.5676 50.0174 13.7138C50.0174 13.7878 50.0088 13.86 49.9985 13.9306C49.9936 13.963 49.985 13.9948 49.9727 14.0252C49.9727 14.0252 49.9727 14.0338 49.9727 14.0252H49.9572H49.9142C49.7697 14.0389 49.62 14.0424 49.4738 14.0475C48.8821 14.0665 48.2903 14.0854 47.6986 14.0957L46.8093 14.1215H46.3672H46.1849C46.1745 14.1215 46.1677 14.1215 46.1849 14.1215C46.1747 14.105 46.1672 14.087 46.1625 14.0682C46.1531 14.0348 46.1456 14.0009 46.1401 13.9667C46.1218 13.823 46.1154 13.678 46.1212 13.5332C46.1237 13.4612 46.1306 13.3894 46.1419 13.3182C46.1461 13.2899 46.1536 13.2622 46.1642 13.2356C46.1902 13.2229 46.2181 13.2148 46.2468 13.2115C46.5358 13.1617 46.8334 13.1445 47.1275 13.1152C46.8303 13.1072 46.5329 13.1147 46.2365 13.1376C46.1917 13.1386 46.1481 13.1523 46.1109 13.1771C46.0831 13.2133 46.0647 13.2559 46.0576 13.301C46.0421 13.3767 46.0335 13.4524 46.0249 13.5281C46.012 13.6792 46.012 13.8311 46.0249 13.9822C46.0288 14.0215 46.0351 14.0606 46.0438 14.0991C46.061 14.1387 46.0541 14.1817 46.1247 14.235C46.1377 14.2443 46.1534 14.2492 46.1694 14.2488H46.2021H46.2623H46.8213L47.7106 14.2368C48.3041 14.2144 48.8958 14.1972 49.4893 14.1525C49.6372 14.1404 49.7834 14.1301 49.9348 14.1095C49.9577 14.1081 49.9803 14.1034 50.0019 14.0957C50.0144 14.0923 50.0265 14.0877 50.038 14.0819C50.0503 14.0708 50.0602 14.0573 50.0673 14.0424C50.0817 14.0037 50.0904 13.9632 50.0931 13.922C50.1008 13.8465 50.1042 13.7707 50.1034 13.6949C50.0997 13.5449 50.0847 13.3954 50.0587 13.2477C50.0522 13.2102 50.0424 13.1733 50.0294 13.1376C50.0253 13.1279 50.0201 13.1186 50.0139 13.1101C50.0099 13.1044 50.0044 13.0998 49.9981 13.0968C49.9918 13.0938 49.9848 13.0924 49.9778 13.0929H49.9228L49.6888 13.129Z" fill="black"/>
</g>
<path d="M15.3493 35.4706C10.9548 33.881 8.68084 29.03 10.2704 24.6355C11.8599 20.2409 16.7109 17.967 21.1055 19.5565C25.5 21.146 27.7739 25.9971 26.1844 30.3916C24.5949 34.7862 19.7439 37.0601 15.3493 35.4706Z" fill="#263238"/>
<path d="M12.3281 29.6114C11.4567 26.311 13.4258 22.9292 16.7261 22.0578C20.0265 21.1865 23.4083 23.1555 24.2797 26.4559C25.151 29.7562 23.182 33.138 19.8816 34.0094C16.5813 34.8808 13.1995 32.9117 12.3281 29.6114Z" fill="#DBDBDB"/>
<path d="M18.307 33.7289C15.1595 33.7289 12.6081 31.1774 12.6081 28.03C12.6081 24.8825 15.1595 22.3311 18.307 22.3311C21.4544 22.3311 24.0059 24.8825 24.0059 28.03C24.0059 31.1774 21.4544 33.7289 18.307 33.7289Z" fill="#A6A6A6"/>
<path d="M17.409 26.6005H19.2031C18.5976 25.7267 20.7031 22.682 20.7031 22.682L19.7622 22.3672C19.1361 23.4423 18.823 23.7571 18.3069 23.7571C17.7909 23.7571 17.4795 23.4423 16.85 22.3672L15.9107 22.682C15.9107 22.682 18.0162 25.7267 17.409 26.6005Z" fill="#DBDBDB"/>
<path d="M19.3524 26.709L19.9046 28.412C20.5479 27.5674 24.0949 28.6288 24.0949 28.6288L24.1035 27.6362C22.8874 27.373 22.4917 27.1718 22.3317 26.6815C22.1718 26.1913 22.3765 25.7974 23.2039 24.8667L22.6139 24.0703C22.6139 24.0703 20.369 27.0135 19.3524 26.709Z" fill="#DBDBDB"/>
<path d="M19.8494 28.5879L18.4011 29.6406C19.4022 29.9847 19.4899 33.6916 19.4899 33.6916L20.436 33.394C20.3105 32.1555 20.3793 31.7169 20.7955 31.4141C21.2118 31.1114 21.6556 31.1819 22.7909 31.6825L23.3672 30.8757C23.3672 30.8757 19.8735 29.6492 19.8494 28.5879Z" fill="#DBDBDB"/>
<path d="M18.2148 29.6406L16.7665 28.5879C16.7424 29.6492 13.2504 30.8757 13.2504 30.8757L13.8267 31.6842C14.9654 31.1819 15.4041 31.1114 15.8204 31.4141C16.2367 31.7169 16.3055 32.1555 16.1816 33.394L17.1277 33.6916C17.1277 33.6916 17.2137 29.9915 18.2148 29.6406Z" fill="#DBDBDB"/>
<path d="M16.7098 28.412L17.2637 26.709C16.2471 27.0135 13.9954 24.0703 13.9954 24.0703L13.4053 24.8685C14.2345 25.7956 14.4374 26.1913 14.2775 26.6815C14.1175 27.1718 13.7218 27.3696 12.5057 27.6379L12.516 28.6288C12.516 28.6288 16.0664 27.5674 16.7098 28.412Z" fill="#DBDBDB"/>
<path d="M18.3081 29.6436C17.3942 29.6436 16.6533 28.9027 16.6533 27.9888C16.6533 27.0749 17.3942 26.334 18.3081 26.334C19.222 26.334 19.9629 27.0749 19.9629 27.9888C19.9629 28.9027 19.222 29.6436 18.3081 29.6436Z" fill="#DBDBDB"/>
<path d="M34.6022 8.59205C34.9101 8.90167 34.8826 11.6608 34.659 11.8844C34.4354 12.1081 31.3666 12.311 31.1206 10.5978C30.8746 8.88447 34.1206 8.1104 34.6022 8.59205Z" fill="#4285F4"/>
<path d="M23.4053 10.2416H25.9013C32.3966 5.95663 41.3105 1.71643 41.3105 1.71643L39.8312 1.36035C34.435 3.97156 24.0298 9.94569 23.7563 10.1332C23.644 10.1831 23.5262 10.2195 23.4053 10.2416Z" fill="#455A64"/>
<g opacity="0.5">
<path opacity="0.5" d="M28.2832 22.5005C27.7627 21.6407 27.126 20.8569 26.391 20.1713C25.654 19.4786 24.8321 18.8821 23.9449 18.3961C22.1599 17.4263 20.1551 16.9328 18.1239 16.9632L17.367 16.9976L16.9886 17.0166C16.863 17.0303 16.7375 17.051 16.6136 17.0682L15.8619 17.1748C15.6159 17.2264 15.3699 17.2918 15.1239 17.3468C14.1399 17.5901 13.2022 17.9921 12.3476 18.5372C11.4986 19.0857 10.7406 19.7636 10.1011 20.5463C9.47813 21.3365 8.94557 22.1939 8.51334 23.1025C9.0053 22.2287 9.51276 21.36 10.1767 20.61C10.8233 19.8504 11.5834 19.1953 12.4302 18.6679C14.1262 17.61 16.1406 17.18 18.1256 17.1611C19.1212 17.1455 20.1148 17.2524 21.0843 17.4793C23.033 17.9449 24.8327 18.8945 26.3171 20.2402C27.0695 20.9033 27.7307 21.6634 28.2832 22.5005Z" fill="white"/>
</g>
<path opacity="0.1" d="M20.7041 19.5372C27.1891 21.0199 27.2837 28.3651 27.2837 29.7119C27.2837 29.7119 68.0344 28.7831 68.2013 28.7486C68.3372 28.7194 68.2959 22.2894 73.1055 19.8382C70.9449 20.9064 68.1772 23.4935 67.1296 27.271C67.0161 27.6735 61.0815 28.3031 50.9377 28.6282C40.7939 28.9534 31.9763 28.7487 30.2957 28.513C28.6151 28.2773 26.6662 19.5114 20.7041 19.5372Z" fill="black"/>
<path opacity="0.1" d="M0.128201 24.0013C0.217649 24.2594 2.1236 26.5816 2.1322 26.6435C2.1408 26.7054 2.19929 27.3488 2.23369 27.4176C2.26809 27.4864 4.14994 29.1378 4.41829 29.1962C4.68664 29.2547 5.78411 29.2857 5.93892 29.3304C6.09373 29.3751 8.00311 30.6291 8.15793 30.6962C8.31274 30.7633 9.23304 30.6962 9.50138 30.6962C9.58223 30.6962 9.32936 29.0776 9.37753 27.5999C9.45149 25.0334 11.0186 21.803 14.0977 20.2256C12.4274 20.5817 9.64071 22.8626 8.51572 25.2141C7.39073 27.5655 7.67972 27.7393 7.41653 28.0231C7.15335 28.3069 6.28123 27.7341 5.87871 27.6326C5.47619 27.5311 4.15855 27.4984 3.6597 27.3987C3.16086 27.2989 3.07484 26.3907 2.72909 26.1946C2.38334 25.9985 0.627048 24.5948 0.128201 24.0013Z" fill="black"/>
</svg>
