<svg width="390" height="40" viewBox="0 0 390 40" fill="none" xmlns="http://www.w3.org/2000/svg">
<path d="M-25 0V39.3103V40H-11.2069V20C-11.2069 34.3448 3.96552 39.3103 15 40V26.8966C2.58621 24.1379 1.2069 17.931 1.2069 13.7931H15V0L-25 0Z" fill="#070E29"/>
<path d="M15 0V39.3103V40H28.7931V20C28.7931 34.3448 43.9655 39.3103 55 40V26.8966C42.5862 24.1379 41.2069 17.931 41.2069 13.7931H55V0H15Z" fill="#FFBE2D"/>
<path d="M55 0V39.3103V40H68.7931V20C68.7931 34.3448 83.9655 39.3103 95 40V26.8966C82.5862 24.1379 81.2069 17.931 81.2069 13.7931H95V0L55 0Z" fill="#070E29"/>
<path d="M95 0V39.3103V40H108.793V20C108.793 34.3448 123.966 39.3103 135 40V26.8966C122.586 24.1379 121.207 17.931 121.207 13.7931H135V0H95Z" fill="#FFBE2D"/>
<path d="M135 0V39.3103V40H148.793V20C148.793 34.3448 163.966 39.3103 175 40V26.8966C162.586 24.1379 161.207 17.931 161.207 13.7931H175V0L135 0Z" fill="#070E29"/>
<path d="M175 0V39.3103V40H188.793V20C188.793 34.3448 203.966 39.3103 215 40V26.8966C202.586 24.1379 201.207 17.931 201.207 13.7931H215V0H175Z" fill="#FFBE2D"/>
<path d="M215 0V39.3103V40H228.793V20C228.793 34.3448 243.966 39.3103 255 40V26.8966C242.586 24.1379 241.207 17.931 241.207 13.7931H255V0L215 0Z" fill="#070E29"/>
<path d="M255 0V39.3103V40H268.793V20C268.793 34.3448 283.966 39.3103 295 40V26.8966C282.586 24.1379 281.207 17.931 281.207 13.7931H295V0H255Z" fill="#FFBE2D"/>
<path d="M295 0V39.3103V40H308.793V20C308.793 34.3448 323.966 39.3103 335 40V26.8966C322.586 24.1379 321.207 17.931 321.207 13.7931H335V0L295 0Z" fill="#070E29"/>
<path d="M335 0V39.3103V40H348.793V20C348.793 34.3448 363.966 39.3103 375 40V26.8966C362.586 24.1379 361.207 17.931 361.207 13.7931H375V0H335Z" fill="#FFBE2D"/>
<path d="M375 0V39.3103V40H388.793V20C388.793 34.3448 403.966 39.3103 415 40V26.8966C402.586 24.1379 401.207 17.931 401.207 13.7931H415V0L375 0Z" fill="#070E29"/>
</svg>
