<svg width="390" height="191" viewBox="0 0 390 191" fill="none" xmlns="http://www.w3.org/2000/svg">
<path d="M136 0V117.931V120H177.379V60C177.379 103.034 222.897 117.931 256 120V80.6897C218.759 72.4138 214.621 53.7931 214.621 41.3793H256V0H136Z" fill="#FFBE2D"/>
<path d="M111.805 182.516C106.273 182.516 103.133 178.977 103.133 173.094V156.875H109.977V171.664C109.977 174.945 111.523 176.844 114.594 176.844C117.664 176.844 119.609 174.594 119.609 171.312V156.875H126.453V182H119.609V177.852H119.469C118.18 180.734 115.602 182.516 111.805 182.516ZM134.844 190.273C133.508 190.273 132.148 190.109 131.352 189.969V184.883C131.844 184.977 132.641 185.117 133.648 185.117C135.688 185.117 136.812 184.531 137.422 182.82L137.727 182L128.844 156.875H136.367L141.664 176.516H141.852L147.172 156.875H154.391L145.766 182.445C143.797 188.375 140.422 190.273 134.844 190.273ZM167.422 182.516C159.781 182.516 154.977 177.617 154.977 169.438V169.391C154.977 161.305 159.898 156.359 167.398 156.359C174.922 156.359 179.867 161.258 179.867 169.391V169.438C179.867 177.641 175.016 182.516 167.422 182.516ZM167.445 177.148C170.773 177.148 172.906 174.336 172.906 169.438V169.391C172.906 164.539 170.727 161.727 167.398 161.727C164.094 161.727 161.938 164.539 161.938 169.391V169.438C161.938 174.359 164.07 177.148 167.445 177.148ZM198.289 182.516C194.68 182.516 191.914 180.688 190.555 177.711H190.414V182H183.57V148.18H190.414V161.234H190.555C191.938 158.188 194.727 156.359 198.312 156.359C204.617 156.359 208.531 161.234 208.531 169.414V169.438C208.531 177.594 204.617 182.516 198.289 182.516ZM196.016 176.844C199.414 176.844 201.57 174.008 201.57 169.438V169.414C201.57 164.82 199.414 162.031 196.016 162.031C192.711 162.031 190.414 164.891 190.414 169.414V169.438C190.414 173.984 192.688 176.844 196.016 176.844ZM220.602 182.516C215.07 182.516 211.93 178.977 211.93 173.094V156.875H218.773V171.664C218.773 174.945 220.32 176.844 223.391 176.844C226.461 176.844 228.406 174.594 228.406 171.312V156.875H235.25V182H228.406V177.852H228.266C226.977 180.734 224.398 182.516 220.602 182.516ZM243.641 190.273C242.305 190.273 240.945 190.109 240.148 189.969V184.883C240.641 184.977 241.438 185.117 242.445 185.117C244.484 185.117 245.609 184.531 246.219 182.82L246.523 182L237.641 156.875H245.164L250.461 176.516H250.648L255.969 156.875H263.188L254.562 182.445C252.594 188.375 249.219 190.273 243.641 190.273ZM276.219 182.516C268.578 182.516 263.773 177.617 263.773 169.438V169.391C263.773 161.305 268.695 156.359 276.195 156.359C283.719 156.359 288.664 161.258 288.664 169.391V169.438C288.664 177.641 283.812 182.516 276.219 182.516ZM276.242 177.148C279.57 177.148 281.703 174.336 281.703 169.438V169.391C281.703 164.539 279.523 161.727 276.195 161.727C272.891 161.727 270.734 164.539 270.734 169.391V169.438C270.734 174.359 272.867 177.148 276.242 177.148Z" fill="#070E29"/>
</svg>
