<svg width="24" height="24" viewBox="0 0 24 24" fill="none" xmlns="http://www.w3.org/2000/svg">
<path d="M12.1989 11.8002L10.7889 13.2102C10.0089 13.9902 10.0089 15.2602 10.7889 16.0402C11.5689 16.8202 12.8389 16.8202 13.6189 16.0402L15.8389 13.8202C17.3989 12.2602 17.3989 9.73023 15.8389 8.16023C14.2789 6.60023 11.7489 6.60023 10.1789 8.16023L7.75891 10.5802C6.41891 11.9202 6.41891 14.0902 7.75891 15.4302" stroke="#6A6E7F" stroke-width="1.5" stroke-linecap="round" stroke-linejoin="round"/>
<path d="M12 22C17.5228 22 22 17.5228 22 12C22 6.47715 17.5228 2 12 2C6.47715 2 2 6.47715 2 12C2 17.5228 6.47715 22 12 22Z" stroke="#6A6E7F" stroke-width="1.5" stroke-linecap="round" stroke-linejoin="round"/>
</svg>
