<svg width="24" height="24" viewBox="0 0 24 24" fill="none" xmlns="http://www.w3.org/2000/svg">
<path d="M21.97 18.33C21.97 18.69 21.89 19.06 21.72 19.42C21.55 19.78 21.33 20.12 21.04 20.44C20.55 20.98 20.01 21.37 19.4 21.62C18.8 21.87 18.15 22 17.45 22C16.43 22 15.34 21.76 14.19 21.27C13.04 20.78 11.89 20.12 10.75 19.29C9.6 18.45 8.51 17.52 7.47 16.49C6.44 15.45 5.51 14.36 4.68 13.22C3.86 12.08 3.2 10.94 2.72 9.81C2.24 8.67 2 7.58 2 6.54C2 5.86 2.12 5.21 2.36 4.61C2.6 4 2.98 3.44 3.51 2.94C4.15 2.31 4.85 2 5.59 2C5.87 2 6.15 2.06 6.4 2.18C6.66 2.3 6.89 2.48 7.07 2.74L9.39 6.01C9.57 6.26 9.7 6.49 9.79 6.71C9.88 6.92 9.93 7.13 9.93 7.32C9.93 7.56 9.86 7.8 9.72 8.03C9.59 8.26 9.4 8.5 9.16 8.74L8.4 9.53C8.29 9.64 8.24 9.77 8.24 9.93C8.24 10.01 8.25 10.08 8.27 10.16C8.3 10.24 8.33 10.3 8.35 10.36C8.53 10.69 8.84 11.12 9.28 11.64C9.73 12.16 10.21 12.69 10.73 13.22C11.27 13.75 11.79 14.24 12.32 14.69C12.84 15.13 13.27 15.43 13.61 15.61C13.66 15.63 13.72 15.66 13.79 15.69C13.87 15.72 13.95 15.73 14.04 15.73C14.21 15.73 14.34 15.67 14.45 15.56L15.21 14.81C15.46 14.56 15.7 14.37 15.93 14.25C16.16 14.11 16.39 14.04 16.64 14.04C16.83 14.04 17.03 14.08 17.25 14.17C17.47 14.26 17.7 14.39 17.95 14.56L21.26 16.91C21.52 17.09 21.7 17.3 21.81 17.55C21.91 17.8 21.97 18.05 21.97 18.33Z" stroke="#070E29" stroke-width="1.5" stroke-miterlimit="10"/>
<path d="M10.7502 19.2897C11.8902 20.1197 13.0402 20.7797 14.1902 21.2697C15.3402 21.7597 16.4302 21.9997 17.4502 21.9997C18.1502 21.9997 18.8002 21.8697 19.4002 21.6197C20.0102 21.3697 20.5502 20.9797 21.0402 20.4397C21.3302 20.1197 21.5502 19.7797 21.7202 19.4197C21.8902 19.0597 21.9702 18.6897 21.9702 18.3297C21.9702 18.0497 21.9102 17.7997 21.8102 17.5497C21.7002 17.2997 21.5202 17.0897 21.2602 16.9097L17.9502 14.5597C17.7002 14.3897 17.4702 14.2597 17.2502 14.1697C17.0302 14.0797 16.8302 14.0397 16.6402 14.0397C16.3902 14.0397 16.1602 14.1097 15.9302 14.2497C15.7002 14.3697 15.4602 14.5597 15.2102 14.8097L14.4502 15.5597C14.3402 15.6697 14.2102 15.7297 14.0402 15.7297C13.9502 15.7297 13.8702 15.7197 13.7902 15.6897C13.7202 15.6597 13.6602 15.6297 13.6102 15.6097C13.2702 15.4297 12.8402 15.1297 12.3202 14.6897C11.7902 14.2397 11.2702 13.7497 10.7302 13.2197C10.2102 12.6897 9.73023 12.1597 9.28023 11.6397C8.84023 11.1197 8.53023 10.6897 8.35023 10.3597C8.33023 10.2997 8.30024 10.2397 8.27024 10.1597C8.25024 10.0797 8.24023 10.0097 8.24023 9.92969" stroke="#070E29" stroke-width="1.5" stroke-miterlimit="10"/>
</svg>
